<svg width="27" height="22" viewBox="0 0 27 22" fill="none" xmlns="http://www.w3.org/2000/svg">
<path d="M22.7546 5.93143H20.5978V3.77457C20.5978 3.63156 20.5409 3.49441 20.4398 3.39328C20.3387 3.29216 20.2015 3.23535 20.0585 3.23535C19.9155 3.23535 19.7784 3.29216 19.6773 3.39328C19.5761 3.49441 19.5193 3.63156 19.5193 3.77457V5.93143H17.3625C17.2194 5.93143 17.0823 5.98824 16.9812 6.08936C16.8801 6.19049 16.8232 6.32764 16.8232 6.47065C16.8232 6.61365 16.8801 6.75081 16.9812 6.85193C17.0823 6.95305 17.2194 7.00986 17.3625 7.00986H19.5193V9.16672C19.5193 9.30973 19.5761 9.44688 19.6773 9.54801C19.7784 9.64913 19.9155 9.70594 20.0585 9.70594C20.2015 9.70594 20.3387 9.64913 20.4398 9.54801C20.5409 9.44688 20.5978 9.30973 20.5978 9.16672V7.00986H22.7546C22.8976 7.00986 23.0348 6.95305 23.1359 6.85193C23.237 6.75081 23.2938 6.61365 23.2938 6.47065C23.2938 6.32764 23.237 6.19049 23.1359 6.08936C23.0348 5.98824 22.8976 5.93143 22.7546 5.93143Z" fill="#292727" fill-opacity="0.5"/>
<g clip-path="url(#clip0_368_21950)">
<path d="M10.353 13.2714C11.2464 13.2714 11.9706 12.5472 11.9706 11.6538C11.9706 10.7604 11.2464 10.0361 10.353 10.0361C9.45959 10.0361 8.73535 10.7604 8.73535 11.6538C8.73535 12.5472 9.45959 13.2714 10.353 13.2714Z" fill="#292727" fill-opacity="0.5"/>
<path d="M14.8824 16.8232C14.7108 16.8232 14.5462 16.8914 14.4249 17.0128C14.3035 17.1341 14.2354 17.2987 14.2354 17.4703V18.7644C14.2354 19.2792 14.0309 19.773 13.6668 20.137C13.3028 20.5011 12.809 20.7056 12.2942 20.7056H11.0001C10.8285 20.7056 10.6639 20.7738 10.5425 20.8951C10.4212 21.0165 10.353 21.181 10.353 21.3526C10.353 21.5243 10.4212 21.6888 10.5425 21.8102C10.6639 21.9315 10.8285 21.9997 11.0001 21.9997H12.2942C13.1519 21.9987 13.9742 21.6575 14.5808 21.051C15.1873 20.4445 15.5285 19.6222 15.5295 18.7644V17.4703C15.5295 17.2987 15.4613 17.1341 15.34 17.0128C15.2186 16.8914 15.054 16.8232 14.8824 16.8232Z" fill="#292727" fill-opacity="0.5"/>
<path d="M0.647059 11.6472C0.818669 11.6472 0.983251 11.579 1.1046 11.4577C1.22595 11.3363 1.29412 11.1717 1.29412 11.0001V9.706C1.29412 9.19116 1.49863 8.69742 1.86268 8.33338C2.22672 7.96934 2.72046 7.76482 3.23529 7.76482H4.52941C4.70102 7.76482 4.8656 7.69665 4.98695 7.5753C5.1083 7.45395 5.17647 7.28937 5.17647 7.11776C5.17647 6.94615 5.1083 6.78157 4.98695 6.66022C4.8656 6.53888 4.70102 6.4707 4.52941 6.4707H3.23529C2.37756 6.47173 1.55524 6.81292 0.94873 7.41943C0.342218 8.02595 0.00102744 8.84826 0 9.706L0 11.0001C0 11.1717 0.0681721 11.3363 0.189519 11.4577C0.310866 11.579 0.475448 11.6472 0.647059 11.6472Z" fill="#292727" fill-opacity="0.5"/>
<path d="M4.52941 20.7056H3.23529C2.72046 20.7056 2.22672 20.5011 1.86268 20.137C1.49863 19.773 1.29412 19.2792 1.29412 18.7644V17.4703C1.29412 17.2987 1.22595 17.1341 1.1046 17.0128C0.983251 16.8914 0.818669 16.8232 0.647059 16.8232C0.475448 16.8232 0.310866 16.8914 0.189519 17.0128C0.0681721 17.1341 0 17.2987 0 17.4703L0 18.7644C0.00102744 19.6222 0.342218 20.4445 0.94873 21.051C1.55524 21.6575 2.37756 21.9987 3.23529 21.9997H4.52941C4.70102 21.9997 4.8656 21.9315 4.98695 21.8102C5.1083 21.6888 5.17647 21.5243 5.17647 21.3526C5.17647 21.181 5.1083 21.0165 4.98695 20.8951C4.8656 20.7738 4.70102 20.7056 4.52941 20.7056Z" fill="#292727" fill-opacity="0.5"/>
<path d="M12.2942 6.4707H11.0001C10.8285 6.4707 10.6639 6.53888 10.5425 6.66022C10.4212 6.78157 10.353 6.94615 10.353 7.11776C10.353 7.28937 10.4212 7.45395 10.5425 7.5753C10.6639 7.69665 10.8285 7.76482 11.0001 7.76482H12.2942C12.809 7.76482 13.3028 7.96934 13.6668 8.33338C14.0309 8.69742 14.2354 9.19116 14.2354 9.706V11.0001C14.2354 11.1717 14.3035 11.3363 14.4249 11.4577C14.5462 11.579 14.7108 11.6472 14.8824 11.6472C15.054 11.6472 15.2186 11.579 15.34 11.4577C15.4613 11.3363 15.5295 11.1717 15.5295 11.0001V9.706C15.5285 8.84826 15.1873 8.02595 14.5808 7.41943C13.9742 6.81292 13.1519 6.47173 12.2942 6.4707V6.4707Z" fill="#292727" fill-opacity="0.5"/>
<path d="M12.1044 17.6605L7.19584 12.7519C6.83182 12.388 6.33816 12.1836 5.82343 12.1836C5.3087 12.1836 4.81504 12.388 4.45102 12.7519L2.96731 14.2356C2.7246 14.4783 2.58821 14.8074 2.58813 15.1506V16.8239C2.58813 17.3387 2.79265 17.8325 3.15669 18.1965C3.52073 18.5605 4.01448 18.7651 4.52931 18.7651H11.647C11.7749 18.765 11.9 18.7271 12.0064 18.656C12.1128 18.5849 12.1957 18.4838 12.2446 18.3656C12.2936 18.2474 12.3064 18.1173 12.2815 17.9918C12.2565 17.8663 12.1949 17.751 12.1044 17.6605Z" fill="#292727" fill-opacity="0.5"/>
</g>
<defs>
<clipPath id="clip0_368_21950">
<rect width="15.5294" height="15.5294" fill="white" transform="translate(0 6.4707)"/>
</clipPath>
</defs>
</svg>
